<svg width="156" height="36" viewBox="0 0 156 36" fill="none" xmlns="http://www.w3.org/2000/svg">
<g clip-path="url(#clip0_1433_65)">
<path fill-rule="evenodd" clip-rule="evenodd" d="M153.895 10.6307H153.484V11.1484H153.895C154.085 11.1484 154.21 11.063 154.21 10.8896C154.21 10.7161 154.095 10.6307 153.895 10.6307ZM152.977 10.157H153.903C154.415 10.157 154.747 10.4366 154.747 10.8714C154.749 10.9926 154.719 11.1121 154.66 11.2176C154.601 11.3231 154.515 11.4109 154.412 11.472L154.775 12.0052V12.1113H154.248L153.895 11.5936H153.484V12.1113H152.972L152.977 10.157ZM155.568 11.1717C155.568 10.1363 154.88 9.33391 153.826 9.33391C152.773 9.33391 152.105 10.0871 152.105 11.1717C152.105 12.2071 152.793 13.0121 153.826 13.0121C154.859 13.0121 155.568 12.2174 155.568 11.1717ZM156 11.1717C156 12.4038 155.187 13.4288 153.826 13.4288C152.466 13.4288 151.676 12.3934 151.676 11.1717C151.676 9.94996 152.479 8.91717 153.826 8.91717C155.174 8.91717 155.99 9.94219 155.99 11.1717H156ZM34.2947 15.5488L30.1035 18.0026L34.2947 20.4487C34.8034 20.7452 35.1748 21.2342 35.3273 21.808C35.4798 22.3817 35.4009 22.9933 35.1079 23.5082C34.8149 24.0231 34.3319 24.399 33.765 24.5534C33.1982 24.7078 32.594 24.6279 32.0853 24.3313L24.5799 19.931C24.098 19.6496 23.7397 19.1935 23.5775 18.6549C23.5048 18.4197 23.4719 18.1738 23.4803 17.9275C23.4841 17.7524 23.5099 17.5784 23.557 17.4098C23.7118 16.8448 24.079 16.3635 24.5799 16.069L32.0853 11.6842C32.594 11.3876 33.1982 11.3078 33.765 11.4621C34.3319 11.6165 34.8149 11.9925 35.1079 12.5073C35.4009 13.0222 35.4798 13.6338 35.3273 14.2076C35.1748 14.7814 34.8034 15.2703 34.2947 15.5669V15.5488ZM30.3259 27.4375L22.8231 23.0578C22.4368 22.8293 21.9903 22.7271 21.5445 22.7653C20.9884 22.8065 20.4684 23.0592 20.0889 23.4727C19.7094 23.8861 19.4985 24.4296 19.4987 24.994V33.7636C19.4987 34.3567 19.7315 34.9256 20.1458 35.345C20.5602 35.7644 21.1222 36 21.7081 36C22.2941 36 22.8561 35.7644 23.2704 35.345C23.6848 34.9256 23.9176 34.3567 23.9176 33.7636V28.8456L28.1293 31.3201C28.3812 31.4668 28.6591 31.5618 28.9472 31.5998C29.2354 31.6377 29.5281 31.6178 29.8086 31.5413C30.0892 31.4647 30.3521 31.333 30.5824 31.1536C30.8126 30.9742 31.0057 30.7506 31.1506 30.4957C31.2955 30.2408 31.3894 29.9594 31.4269 29.6678C31.4644 29.3761 31.4448 29.0798 31.3691 28.7958C31.2935 28.5118 31.1634 28.2457 30.9861 28.0126C30.8089 27.7796 30.588 27.5841 30.3362 27.4375H30.3259ZM21.6672 18.8594L18.5474 22.0017C18.4411 22.1034 18.3023 22.1631 18.1562 22.17H17.2407C17.0941 22.1617 16.955 22.1023 16.8469 22.0017L13.7296 18.8594C13.6335 18.7505 13.5766 18.6118 13.5685 18.4659V17.5367C13.5757 17.3891 13.6326 17.2484 13.7296 17.1381L16.8469 13.9776C16.9552 13.8778 17.0944 13.8192 17.2407 13.8119H18.1562C18.3019 13.8183 18.4406 13.877 18.5474 13.9776L21.6672 17.1303C21.7643 17.2406 21.8212 17.3813 21.8283 17.5289V18.4582C21.822 18.6067 21.765 18.7484 21.6672 18.8594ZM19.1791 17.9845C19.169 17.8363 19.1116 17.6954 19.0154 17.5833L18.105 16.6747C17.9983 16.5757 17.8609 16.5172 17.7163 16.5091H17.6805C17.5359 16.5172 17.3986 16.5757 17.2918 16.6747L16.3891 17.5833C16.2917 17.6944 16.2348 17.836 16.228 17.9845V18.0181C16.2345 18.1643 16.2915 18.3036 16.3891 18.4116L17.2918 19.3253C17.3989 19.4238 17.5361 19.4822 17.6805 19.4909H17.7163C17.8609 19.4829 17.9983 19.4243 18.105 19.3253L19.0103 18.4116C19.1086 18.3033 19.168 18.1647 19.1791 18.0181V17.9845ZM5.07094 8.55738L12.5763 12.9422C12.913 13.1386 13.2948 13.2421 13.6834 13.2421C14.072 13.2422 14.4537 13.1388 14.7905 12.9425C15.1272 12.7461 15.407 12.4636 15.6018 12.1233C15.7967 11.783 15.8998 11.3968 15.9007 11.0035V2.23383C15.9007 1.64069 15.6679 1.07185 15.2536 0.652444C14.8392 0.233035 14.2773 -0.0025857 13.6913 -0.0025857C13.1053 -0.0025857 12.5433 0.233035 12.129 0.652444C11.7146 1.07185 11.4819 1.64069 11.4819 2.23383V7.15186L7.27781 4.68508C7.02595 4.5384 6.74801 4.44338 6.45986 4.40543C6.17172 4.36748 5.87901 4.38735 5.59845 4.4639C5.03184 4.61851 4.54912 4.99462 4.25647 5.50949C3.96382 6.02437 3.88522 6.63582 4.03796 7.20936C4.1907 7.78289 4.56228 8.27151 5.07094 8.56773V8.55738ZM21.5445 13.2347C21.9902 13.2715 22.4363 13.1695 22.8231 12.9422L30.3259 8.55738C30.5778 8.41071 30.7987 8.21525 30.9759 7.98218C31.1531 7.74911 31.2833 7.48299 31.3589 7.199C31.4345 6.91502 31.4542 6.61874 31.4167 6.32707C31.3792 6.03541 31.2853 5.75408 31.1404 5.49914C30.9955 5.2442 30.8024 5.02065 30.5721 4.84125C30.3419 4.66184 30.079 4.5301 29.7984 4.45355C29.5179 4.37699 29.2252 4.35712 28.937 4.39507C28.6489 4.43302 28.3709 4.52805 28.1191 4.67472L23.9176 7.1415V2.22347C23.9176 1.63034 23.6848 1.0615 23.2704 0.64209C22.8561 0.222682 22.2941 -0.0129395 21.7081 -0.0129395C21.1222 -0.0129395 20.5602 0.222682 20.1458 0.64209C19.7315 1.0615 19.4987 1.63034 19.4987 2.22347V11.0035C19.4985 11.5681 19.7092 12.1119 20.0887 12.5258C20.4681 12.9396 20.9882 13.1929 21.5445 13.2347ZM13.8575 22.7783C13.4117 22.7401 12.9652 22.8422 12.5789 23.0708L5.07094 27.4375C4.81907 27.5841 4.59822 27.7796 4.42098 28.0126C4.24374 28.2457 4.11359 28.5118 4.03796 28.7958C3.96233 29.0798 3.9427 29.3761 3.98019 29.6678C4.01768 29.9594 4.11156 30.2408 4.25647 30.4957C4.40137 30.7506 4.59447 30.9742 4.82472 31.1536C5.05498 31.333 5.3179 31.4647 5.59845 31.5413C5.87901 31.6178 6.17172 31.6377 6.45986 31.5998C6.74801 31.5618 7.02595 31.4668 7.27781 31.3201L11.4819 28.8663V33.7843C11.4819 34.3774 11.7146 34.9463 12.129 35.3657C12.5433 35.7851 13.1053 36.0207 13.6913 36.0207C14.2773 36.0207 14.8392 35.7851 15.2536 35.3657C15.6679 34.9463 15.9007 34.3774 15.9007 33.7843V24.994C15.8977 24.4323 15.6858 23.8923 15.3072 23.4817C14.9285 23.0711 14.4109 22.8199 13.8575 22.7783ZM11.8117 18.6704C11.8852 18.4354 11.919 18.1895 11.9115 17.9431C11.9044 17.768 11.8778 17.5944 11.8322 17.4254C11.6802 16.8589 11.3123 16.3767 10.8093 16.0846L3.32436 11.6764C2.8157 11.3799 2.21149 11.3 1.64463 11.4544C1.07778 11.6087 0.59473 11.9847 0.301742 12.4996C0.00875348 13.0144 -0.0701703 13.626 0.0823329 14.1998C0.234836 14.7736 0.606274 15.2625 1.11493 15.5591L5.3062 18.0129L1.10471 20.4487C0.596045 20.7466 0.225146 21.2369 0.073602 21.8116C-0.077942 22.3864 0.00228269 22.9985 0.296628 23.5134C0.590972 24.0282 1.07533 24.4037 1.64314 24.5571C2.21095 24.7105 2.8157 24.6293 3.32436 24.3313L10.8144 19.931C11.2984 19.652 11.6588 19.1965 11.822 18.6575L11.8117 18.6704ZM104.894 5.56515H104.528C104.009 5.55531 103.49 5.63048 102.994 5.78775C102.508 5.94246 102.073 6.22891 101.736 6.61605C101.393 7.02186 101.15 7.50453 101.028 8.02416C100.884 8.62756 100.816 9.24661 100.823 9.86713V11.2079H99.3629C99.1252 11.2072 98.8967 11.3009 98.7265 11.4688C98.5563 11.6368 98.4579 11.8656 98.4525 12.1061C98.447 12.3612 98.5386 12.6086 98.7083 12.7972C98.8819 12.9767 99.1152 13.0847 99.3629 13.1001H100.813V24.0337C100.813 24.1567 100.838 24.2784 100.886 24.3917C100.933 24.505 101.002 24.6077 101.089 24.6937C101.271 24.8631 101.509 24.9558 101.756 24.9526C101.997 24.9491 102.226 24.8498 102.394 24.6763C102.562 24.5027 102.655 24.269 102.654 24.0259V13.1001H104.224C104.47 13.0873 104.703 12.9821 104.876 12.805C105.054 12.6241 105.153 12.3792 105.152 12.1242V12.088C105.146 11.847 105.046 11.6183 104.874 11.4513C104.702 11.2842 104.473 11.1922 104.234 11.195H102.654V9.85936C102.651 9.40319 102.704 8.94841 102.813 8.50561C102.865 8.268 102.969 8.04517 103.117 7.85332C103.241 7.72271 103.396 7.62646 103.567 7.57377C103.868 7.48678 104.18 7.44748 104.493 7.45729H104.541H104.613H104.697H104.904C105.028 7.45729 105.15 7.43266 105.265 7.38479C105.379 7.33692 105.482 7.26675 105.57 7.1783C105.657 7.08985 105.727 6.98484 105.774 6.86927C105.821 6.7537 105.845 6.62984 105.845 6.50475C105.845 6.37966 105.821 6.25579 105.774 6.14022C105.727 6.02466 105.657 5.91965 105.57 5.8312C105.482 5.74274 105.379 5.67258 105.265 5.62471C105.15 5.57684 105.028 5.5522 104.904 5.5522L104.894 5.56515ZM137.268 12.6393C137.357 12.5516 137.428 12.447 137.477 12.3315C137.525 12.216 137.551 12.0919 137.552 11.9664C137.552 11.8439 137.526 11.7229 137.476 11.6111C137.427 11.4993 137.355 11.399 137.266 11.3167C137.182 11.2282 137.082 11.1577 136.971 11.1096C136.859 11.0615 136.74 11.0367 136.619 11.0367C136.498 11.0367 136.378 11.0615 136.267 11.1096C136.156 11.1577 136.055 11.2282 135.972 11.3167L128.753 18.4271V6.44521C128.751 6.32046 128.725 6.19726 128.677 6.08265C128.628 5.96804 128.557 5.86427 128.469 5.77726C128.381 5.69025 128.276 5.6217 128.162 5.57553C128.047 5.52937 127.925 5.50649 127.802 5.5082C127.681 5.50892 127.561 5.53375 127.45 5.58127C127.338 5.62879 127.237 5.69808 127.152 5.78516C126.979 5.96065 126.881 6.1975 126.878 6.44521V23.9845C126.881 24.2315 126.979 24.4676 127.152 24.6422C127.324 24.8169 127.558 24.9162 127.802 24.9189C128.05 24.9224 128.29 24.8259 128.468 24.6508C128.646 24.4756 128.749 24.236 128.753 23.9845V21.0906L131.108 18.7118L135.905 24.5695C135.987 24.6929 136.103 24.7893 136.238 24.8464C136.364 24.8937 136.497 24.9182 136.632 24.9189C136.849 24.9229 137.062 24.8527 137.235 24.7196H137.248C137.342 24.6283 137.418 24.5187 137.47 24.3973C137.522 24.2759 137.549 24.1452 137.55 24.0129C137.548 23.7853 137.467 23.5655 137.322 23.3917L132.438 17.384L137.271 12.6497L137.268 12.6393ZM124.227 11.4331C124.315 11.5206 124.384 11.6249 124.432 11.7401C124.479 11.8552 124.503 11.9788 124.503 12.1035V23.9845C124.501 24.2317 124.403 24.4682 124.23 24.643C124.058 24.8178 123.824 24.9169 123.58 24.9189C123.335 24.9162 123.101 24.8168 122.928 24.6419C122.841 24.5561 122.773 24.4538 122.726 24.3409C122.679 24.2281 122.654 24.1069 122.654 23.9845V22.8249C122.078 23.4787 121.373 24.003 120.584 24.3637C119.795 24.7244 118.94 24.9135 118.075 24.9189C117.21 24.9242 116.353 24.7457 115.559 24.3948C114.766 24.0439 114.055 23.5285 113.471 22.8818C112.264 21.5643 111.594 19.834 111.594 18.0375C111.594 16.241 112.264 14.5108 113.471 13.1933C114.056 12.55 114.767 12.037 115.559 11.6871C116.35 11.3372 117.205 11.158 118.069 11.1609C118.933 11.1639 119.787 11.3488 120.576 11.7041C121.366 12.0593 122.073 12.5771 122.654 13.2243V12.0906C122.654 11.9657 122.679 11.842 122.726 11.7269C122.774 11.6118 122.844 11.5075 122.933 11.4202C123.108 11.2539 123.339 11.1613 123.58 11.1613C123.82 11.1613 124.051 11.2539 124.227 11.4202V11.4331ZM122.654 18.0518C122.664 16.7277 122.176 15.4492 121.291 14.4745C120.883 14.0136 120.384 13.6449 119.826 13.3924C119.268 13.14 118.664 13.0095 118.052 13.0095C117.441 13.0095 116.837 13.14 116.279 13.3924C115.721 13.6449 115.221 14.0136 114.814 14.4745C113.926 15.4483 113.436 16.7267 113.443 18.0518C113.439 19.3679 113.931 20.6359 114.819 21.5979C115.23 22.0533 115.731 22.4169 116.289 22.6657C116.847 22.9145 117.45 23.043 118.06 23.043C118.67 23.043 119.273 22.9145 119.831 22.6657C120.389 22.4169 120.89 22.0533 121.301 21.5979C122.185 20.6296 122.673 19.3573 122.664 18.0388L122.654 18.0518ZM48.2801 17.7049C47.4858 17.3562 46.672 17.0546 45.8431 16.8016C45.1165 16.5919 44.4048 16.3325 43.7129 16.025C43.4679 15.904 43.2489 15.7351 43.0685 15.528C42.9228 15.3561 42.8445 15.1359 42.8486 14.9094C42.8423 14.6004 42.9318 14.2972 43.1043 14.0423C43.3996 13.6553 43.7993 13.3631 44.2551 13.201C44.6717 13.0308 45.1152 12.9379 45.5643 12.9267C46.3627 12.9129 47.1431 13.1668 47.784 13.6488C48.0397 13.8326 48.2494 14.0216 48.4489 14.1665C48.5445 14.2476 48.6492 14.3171 48.7609 14.3736C48.8733 14.4352 48.9987 14.4689 49.1265 14.472C49.2143 14.4722 49.3013 14.4546 49.3823 14.4202C49.4646 14.3859 49.5407 14.3377 49.6073 14.2778C49.676 14.2129 49.7324 14.1356 49.7735 14.05C49.8083 13.9683 49.8265 13.8802 49.8272 13.7912C49.8239 13.6267 49.7799 13.4656 49.6994 13.3227C49.5351 13.0376 49.3231 12.7836 49.0728 12.572C48.6112 12.172 48.0943 11.8424 47.5385 11.5936C46.9782 11.3231 46.3689 11.1724 45.7485 11.151C44.3752 11.151 43.2296 11.4668 42.396 12.0466C41.9598 12.3259 41.5897 12.6988 41.3117 13.1389C41.0124 13.6766 40.858 14.2845 40.8642 14.9016V15C40.8529 15.6391 41.0577 16.2628 41.4447 16.7679C41.9894 17.4616 42.7949 17.8783 43.5851 18.1734C44.3752 18.4685 45.1603 18.6445 45.659 18.8128C46.3496 19.0168 47.0166 19.2953 47.6485 19.6437C47.8922 19.7855 48.1087 19.9705 48.2878 20.1898C48.4344 20.3939 48.5148 20.639 48.5179 20.8913V20.912C48.5222 21.2635 48.4136 21.6068 48.2085 21.8904C47.8745 22.3001 47.4304 22.6031 46.9299 22.7627C46.4885 22.9217 46.025 23.0091 45.5567 23.0216C44.6624 23.0413 43.7769 22.8405 42.9764 22.4366C42.6849 22.289 42.4497 22.1441 42.2349 22.0198C42.13 21.9629 42.0303 21.9085 41.9254 21.8645C41.8202 21.8196 41.7072 21.7958 41.593 21.7947C41.5134 21.7944 41.4344 21.8093 41.3603 21.8387C41.2847 21.8693 41.216 21.9151 41.1583 21.9733C41.0765 22.047 41.0082 22.1346 40.9563 22.2321C40.9085 22.3312 40.884 22.4402 40.8847 22.5505C40.8893 22.7305 40.9462 22.9052 41.0483 23.0526C41.2276 23.2934 41.4475 23.5002 41.6978 23.6635C42.0246 23.8792 42.3665 24.0703 42.7207 24.2356C43.6144 24.6392 44.5784 24.8591 45.5567 24.8827C46.8736 24.8827 48.0141 24.5746 48.9731 23.8473C49.4395 23.506 49.8202 23.0586 50.0844 22.5411C50.3487 22.0236 50.4892 21.4505 50.4946 20.868C50.5066 20.2809 50.3617 19.7014 50.0753 19.1907C49.6362 18.5257 49.0112 18.0084 48.2801 17.7049ZM108.725 5.5082C108.481 5.51022 108.247 5.60976 108.075 5.78516C107.989 5.87132 107.92 5.97405 107.873 6.08737C107.826 6.20068 107.802 6.32233 107.802 6.44521V23.9845C107.802 24.107 107.826 24.2283 107.873 24.3413C107.92 24.4542 107.989 24.5564 108.075 24.6419C108.206 24.7735 108.372 24.8634 108.552 24.9002C108.733 24.9371 108.92 24.9194 109.091 24.8493C109.261 24.7792 109.408 24.6598 109.512 24.506C109.616 24.3523 109.673 24.1709 109.676 23.9845V6.44521C109.674 6.32046 109.649 6.19726 109.6 6.08265C109.551 5.96804 109.481 5.86427 109.392 5.77726C109.304 5.69025 109.2 5.6217 109.085 5.57553C108.97 5.52937 108.848 5.50649 108.725 5.5082ZM151.274 17.6014V17.6946C151.274 17.8166 151.248 17.9373 151.199 18.0484C151.149 18.1596 151.076 18.2587 150.985 18.3391C150.808 18.4944 150.581 18.579 150.346 18.5772H139.974C140.23 21.1398 142.258 23.0293 144.672 23.05H145.283C146.095 23.0369 146.885 22.7782 147.551 22.3072C148.242 21.8375 148.821 21.2187 149.246 20.4953C149.327 20.3531 149.446 20.2372 149.589 20.1614C149.721 20.0872 149.87 20.0488 150.021 20.05C150.187 20.05 150.349 20.0947 150.492 20.1795C150.62 20.2717 150.726 20.3934 150.799 20.5346C150.872 20.6759 150.912 20.8327 150.914 20.9922C150.914 21.1625 150.869 21.3297 150.783 21.4763C150.195 22.4335 149.41 23.2518 148.482 23.8758C147.535 24.52 146.423 24.8717 145.283 24.8878H144.661C143.791 24.8803 142.931 24.6962 142.132 24.3463C141.333 23.9964 140.611 23.4878 140.01 22.8507C138.783 21.5665 138.094 19.8513 138.089 18.0647C138.082 16.2459 138.774 14.4955 140.017 13.1829C140.624 12.5434 141.351 12.0347 142.157 11.6873C142.963 11.3399 143.829 11.161 144.705 11.1613C146.386 11.1589 148 11.8266 149.198 13.0198C150.411 14.2367 151.144 15.8589 151.261 17.5833L151.274 17.6014ZM149.249 16.7161C149.01 15.6753 148.433 14.7456 147.611 14.0755C146.789 13.4055 145.768 13.0338 144.712 13.0198C143.649 13.028 142.618 13.3956 141.784 14.0644C140.95 14.7331 140.361 15.6645 140.109 16.711L149.249 16.7161ZM58.1356 11.1846C56.7452 11.1872 55.406 11.7163 54.3816 12.6678V12.1217C54.3816 11.8784 54.2902 11.6443 54.1259 11.4668C54.0433 11.3783 53.9438 11.3077 53.8335 11.2592C53.7232 11.2107 53.6043 11.1853 53.484 11.1846C53.362 11.1829 53.2408 11.2059 53.1277 11.2524C53.0146 11.2989 52.9119 11.3678 52.8256 11.4552C52.7393 11.5426 52.6712 11.6466 52.6253 11.761C52.5794 11.8755 52.5566 11.9981 52.5583 12.1217V24.264L52.5967 24.3029C52.6108 24.348 52.6315 24.3907 52.658 24.4297C52.7859 24.6584 52.9969 24.8274 53.2462 24.9008H53.2846H53.484C53.6202 24.8998 53.7546 24.8689 53.8778 24.8102C53.9876 24.7594 54.0846 24.6842 54.1617 24.5902C54.1617 24.5902 54.1745 24.5669 54.1873 24.5565C54.2339 24.4981 54.2726 24.4337 54.3023 24.365C54.3257 24.3017 54.3445 24.2369 54.3586 24.1708V24.1372V16.8249C54.3795 15.8199 54.7847 14.8623 55.4889 14.1536C56.0084 13.6181 56.6742 13.252 57.4007 13.1022C58.1272 12.9524 58.8814 13.0257 59.5665 13.3128C60.2516 13.5999 60.8363 14.0876 61.2457 14.7133C61.655 15.3391 61.8703 16.0744 61.864 16.8249V23.9845C61.8651 24.1684 61.9196 24.3479 62.0205 24.5008C62.1215 24.6536 62.2645 24.7732 62.432 24.8445C62.5994 24.9159 62.7838 24.936 62.9624 24.9023C63.141 24.8686 63.3059 24.7825 63.4367 24.6549C63.5248 24.5676 63.5947 24.4633 63.6422 24.3481C63.6896 24.2329 63.7137 24.1093 63.7129 23.9845V16.8249C63.7075 15.3298 63.118 13.8975 62.073 12.8408C61.0281 11.7841 59.6126 11.1887 58.1356 11.1846ZM76.5168 13.201C77.7245 14.5149 78.3959 16.2429 78.3959 18.0375C78.3959 19.8321 77.7245 21.5602 76.5168 22.874C75.9373 23.5183 75.2313 24.033 74.444 24.3853C73.6566 24.7375 72.8053 24.9194 71.9445 24.9194C71.0837 24.9194 70.2324 24.7375 69.4451 24.3853C68.6577 24.033 67.9517 23.5183 67.3722 22.874C66.1594 21.5628 65.4846 19.8338 65.4846 18.0375C65.4846 16.2413 66.1594 14.5123 67.3722 13.201C67.9528 12.5585 68.6591 12.0454 69.4463 11.6943C70.2335 11.3433 71.0843 11.162 71.9445 11.162C72.8047 11.162 73.6555 11.3433 74.4427 11.6943C75.2299 12.0454 75.9363 12.5585 76.5168 13.201ZM76.5424 18.0388C76.5508 16.7185 76.0647 15.444 75.1819 14.472C74.7758 14.0097 74.2775 13.6398 73.72 13.3865C73.1624 13.1332 72.5582 13.0022 71.9471 13.0022C71.3359 13.0022 70.7317 13.1332 70.1742 13.3865C69.6166 13.6398 69.1184 14.0097 68.7122 14.472C67.8257 15.4424 67.3359 16.7171 67.3415 18.0388C67.3361 19.3551 67.8262 20.6241 68.7122 21.5876C69.1199 22.0473 69.6187 22.4149 70.176 22.6665C70.7333 22.9182 71.3368 23.0483 71.9471 23.0483C72.5574 23.0483 73.1608 22.9182 73.7181 22.6665C74.2755 22.4149 74.7742 22.0473 75.1819 21.5876C76.0642 20.6225 76.5506 19.3537 76.5424 18.0388ZM96.4886 11.2649C96.3836 11.219 96.2705 11.1952 96.1562 11.195C95.9723 11.1957 95.7925 11.2504 95.6386 11.3524C95.4848 11.4543 95.3634 11.5993 95.2893 11.7696L91.7603 21.5488L89.0395 14.9922C88.9622 14.8168 88.8337 14.6696 88.6712 14.5703C88.5123 14.4705 88.3289 14.4177 88.1419 14.4176C87.9576 14.4196 87.7777 14.4746 87.6232 14.5764C87.4688 14.6782 87.3462 14.8224 87.2699 14.9922L84.5362 21.5539L80.9868 11.7774C80.927 11.5975 80.8078 11.4439 80.6493 11.3425C80.4966 11.2433 80.3192 11.1903 80.1378 11.1898C80.0185 11.19 79.9003 11.2137 79.79 11.2597C79.5754 11.361 79.4072 11.5417 79.3202 11.7646C79.2332 11.9875 79.2338 12.2357 79.3221 12.4582L83.6719 24.3313C83.7087 24.4255 83.7605 24.513 83.8253 24.5902C83.8837 24.6529 83.9519 24.7054 84.0273 24.7455C84.0497 24.7655 84.0737 24.7836 84.0989 24.7998C84.1394 24.8235 84.1835 24.8401 84.2293 24.849C84.3317 24.8878 84.4398 24.9088 84.549 24.9111C84.7234 24.9072 84.8931 24.8524 85.0374 24.7532C85.1863 24.654 85.3007 24.5101 85.3647 24.3417H85.3775L88.1368 17.6635L90.9011 24.3158C90.9615 24.481 91.0682 24.6249 91.208 24.7299C91.3402 24.8319 91.496 24.8979 91.6606 24.9215H91.7757C91.8814 24.9223 91.9864 24.903 92.0851 24.8645C92.1689 24.8312 92.248 24.7868 92.3204 24.7325C92.4673 24.6146 92.5818 24.4604 92.6528 24.2847L97.0001 12.4737C97.09 12.2484 97.0886 11.9963 96.9963 11.7719C96.9039 11.5476 96.7279 11.3692 96.5065 11.2752L96.4886 11.2649Z" fill="#566171"/>
</g>
<defs>
<clipPath id="clip0_1433_65">
<rect width="156" height="36" fill="white"/>
</clipPath>
</defs>
</svg>
