<svg width="130" height="30" viewBox="0 0 130 30" fill="none" xmlns="http://www.w3.org/2000/svg">
<g clip-path="url(#clip0_486_9084)">
<path fill-rule="evenodd" clip-rule="evenodd" d="M128.246 8.85893H127.903V9.29033H128.246C128.404 9.29033 128.508 9.21915 128.508 9.07463C128.508 8.93011 128.413 8.85893 128.246 8.85893ZM127.481 8.46419H128.253C128.679 8.46419 128.956 8.69715 128.956 9.05953C128.957 9.16051 128.932 9.26007 128.883 9.34801C128.834 9.43595 128.763 9.5091 128.677 9.55996L128.979 10.0043V10.0927H128.54L128.246 9.66134H127.903V10.0927H127.477L127.481 8.46419ZM129.64 9.30975C129.64 8.44693 129.067 7.77825 128.189 7.77825C127.311 7.77825 126.755 8.40595 126.755 9.30975C126.755 10.1726 127.328 10.8434 128.189 10.8434C129.05 10.8434 129.64 10.1812 129.64 9.30975ZM130 9.30975C130 10.3365 129.322 11.1907 128.189 11.1907C127.055 11.1907 126.397 10.3279 126.397 9.30975C126.397 8.29163 127.066 7.43097 128.189 7.43097C129.312 7.43097 129.992 8.28516 129.992 9.30975H130ZM28.5791 12.9573L25.0864 15.0022L28.5791 17.0406C29.003 17.2877 29.3125 17.6951 29.4396 18.1733C29.5667 18.6514 29.5009 19.1611 29.2567 19.5902C29.0126 20.0192 28.61 20.3325 28.1377 20.4612C27.6653 20.5898 27.1618 20.5232 26.7379 20.2761L20.4834 16.6091C20.0818 16.3747 19.7832 15.9946 19.648 15.5457C19.5875 15.3498 19.5601 15.1448 19.567 14.9396C19.5702 14.7936 19.5917 14.6487 19.631 14.5082C19.76 14.0373 20.0659 13.6363 20.4834 13.3909L26.7379 9.73684C27.1618 9.4897 27.6653 9.42313 28.1377 9.55177C28.61 9.6804 29.0126 9.99371 29.2567 10.4228C29.5009 10.8518 29.5667 11.3615 29.4396 11.8396C29.3125 12.3178 29.003 12.7252 28.5791 12.9724V12.9573ZM25.2718 22.8645L19.0194 19.2148C18.6975 19.0244 18.3254 18.9393 17.9539 18.9711C17.4905 19.0054 17.0571 19.216 16.7409 19.5605C16.4246 19.9051 16.2489 20.358 16.2491 20.8283V28.1363C16.2491 28.6306 16.443 29.1046 16.7883 29.4541C17.1336 29.8036 17.6019 30 18.0903 30C18.5786 30 19.0469 29.8036 19.3922 29.4541C19.7375 29.1046 19.9314 28.6306 19.9314 28.1363V24.038L23.4412 26.1001C23.6511 26.2223 23.8827 26.3015 24.1228 26.3331C24.363 26.3647 24.6069 26.3482 24.8407 26.2844C25.0745 26.2206 25.2936 26.1108 25.4855 25.9613C25.6773 25.8118 25.8382 25.6255 25.959 25.4131C26.0798 25.2006 26.158 24.9662 26.1892 24.7231C26.2205 24.4801 26.2041 24.2332 26.1411 23.9965C26.0781 23.7599 25.9696 23.5381 25.8219 23.3439C25.6742 23.1496 25.4902 22.9868 25.2803 22.8645H25.2718ZM18.0562 15.7161L15.4563 18.3348C15.3677 18.4195 15.252 18.4692 15.1303 18.475H14.3674C14.2453 18.4681 14.1293 18.4185 14.0392 18.3348L11.4415 15.7161C11.3614 15.6254 11.314 15.5098 11.3073 15.3883V14.6139C11.3132 14.4909 11.3606 14.3737 11.4415 14.2817L14.0392 11.648C14.1295 11.5648 14.2455 11.516 14.3674 11.5099H15.1303C15.2517 11.5153 15.3673 11.5642 15.4563 11.648L18.0562 14.2752C18.1371 14.3672 18.1844 14.4844 18.1904 14.6074V15.3818C18.1851 15.5056 18.1377 15.6237 18.0562 15.7161ZM15.9827 14.9871C15.9743 14.8636 15.9265 14.7462 15.8463 14.6527L15.0877 13.8956C14.9987 13.8131 14.8842 13.7643 14.7638 13.7575H14.7339C14.6134 13.7643 14.499 13.8131 14.41 13.8956L13.6578 14.6527C13.5766 14.7453 13.5292 14.8633 13.5235 14.9871V15.0151C13.5289 15.1369 13.5764 15.253 13.6578 15.343L14.41 16.1044C14.4993 16.1865 14.6136 16.2352 14.7339 16.2424H14.7638C14.8842 16.2357 14.9987 16.1869 15.0877 16.1044L15.842 15.343C15.924 15.2528 15.9735 15.1373 15.9827 15.0151V14.9871ZM4.22592 7.13115L10.4804 10.7852C10.761 10.9489 11.0791 11.0351 11.4029 11.0351C11.7268 11.0351 12.0449 10.949 12.3255 10.7854C12.6061 10.6217 12.8393 10.3863 13.0017 10.1027C13.164 9.81914 13.2499 9.49732 13.2507 9.16954V1.86152C13.2507 1.36724 13.0568 0.893205 12.7115 0.543698C12.3662 0.194191 11.8979 -0.00215984 11.4095 -0.00215984C10.9212 -0.00215984 10.4529 0.194191 10.1076 0.543698C9.76234 0.893205 9.56836 1.36724 9.56836 1.86152V5.95988L6.06498 3.90422C5.8551 3.782 5.62348 3.70281 5.38336 3.67118C5.14324 3.63956 4.89932 3.65612 4.66552 3.71991C4.19334 3.84875 3.79107 4.16218 3.5472 4.59124C3.30332 5.0203 3.23782 5.52985 3.36511 6.00779C3.4924 6.48573 3.80204 6.89292 4.22592 7.13977V7.13115ZM17.9539 11.0289C18.3253 11.0596 18.6971 10.9745 19.0194 10.7852L25.2718 7.13115C25.4816 7.00892 25.6657 6.84604 25.8134 6.65181C25.9611 6.45759 26.0695 6.23582 26.1326 5.99916C26.1956 5.76251 26.212 5.51561 26.1807 5.27256C26.1495 5.0295 26.0712 4.79506 25.9505 4.58261C25.8297 4.37016 25.6688 4.18387 25.4769 4.03437C25.285 3.88486 25.066 3.77508 24.8322 3.71129C24.5984 3.64749 24.3544 3.63093 24.1143 3.66256C23.8742 3.69418 23.6426 3.77337 23.4327 3.8956L19.9314 5.95125V1.85289C19.9314 1.35861 19.7375 0.884577 19.3922 0.53507C19.0469 0.185563 18.5786 -0.010788 18.0903 -0.010788C17.6019 -0.010788 17.1336 0.185563 16.7883 0.53507C16.443 0.884577 16.2491 1.35861 16.2491 1.85289V9.16954C16.2489 9.64006 16.4245 10.0932 16.7407 10.4381C17.0569 10.783 17.4903 10.994 17.9539 11.0289ZM11.5481 18.9819C11.1766 18.9501 10.8044 19.0352 10.4826 19.2256L4.22592 22.8645C4.01604 22.9868 3.83199 23.1496 3.68429 23.3439C3.53659 23.5381 3.42813 23.7599 3.36511 23.9965C3.30208 24.2332 3.28573 24.4801 3.31697 24.7231C3.34821 24.9662 3.42644 25.2006 3.5472 25.4131C3.66795 25.6255 3.82886 25.8118 4.02075 25.9613C4.21263 26.1108 4.43172 26.2206 4.66552 26.2844C4.89932 26.3482 5.14324 26.3647 5.38336 26.3331C5.62348 26.3015 5.8551 26.2223 6.06498 26.1001L9.56836 24.0552V28.1536C9.56836 28.6479 9.76234 29.1219 10.1076 29.4714C10.4529 29.8209 10.9212 30.0173 11.4095 30.0173C11.8979 30.0173 12.3662 29.8209 12.7115 29.4714C13.0568 29.1219 13.2507 28.6479 13.2507 28.1536V20.8283C13.2483 20.3602 13.0717 19.9103 12.7561 19.5681C12.4406 19.2259 12.0092 19.0166 11.5481 18.9819ZM9.84326 15.5587C9.90451 15.3628 9.93261 15.1579 9.92637 14.9525C9.92044 14.8067 9.89828 14.662 9.86031 14.5211C9.7336 14.0491 9.42704 13.6473 9.0079 13.4038L2.77044 9.73037C2.34656 9.48323 1.84305 9.41666 1.37067 9.54529C0.898295 9.67393 0.495751 9.98724 0.251594 10.4163C0.00743698 10.8454 -0.0583328 11.355 0.0687531 11.8332C0.195839 12.3113 0.505371 12.7188 0.929254 12.9659L4.42198 15.0108L0.92073 17.0406C0.496847 17.2888 0.187764 17.6974 0.0614774 18.1763C-0.0648092 18.6553 0.00204466 19.1654 0.247332 19.5945C0.492619 20.0235 0.896248 20.3364 1.36942 20.4642C1.8426 20.5921 2.34656 20.5244 2.77044 20.2761L9.01217 16.6091C9.41549 16.3767 9.71584 15.9971 9.85178 15.5479L9.84326 15.5587ZM87.4119 4.63762H87.1072C86.6739 4.62942 86.2422 4.69206 85.8286 4.82312C85.4234 4.95205 85.0608 5.19075 84.7801 5.51337C84.4941 5.85154 84.2918 6.25377 84.1898 6.6868C84.0705 7.18963 84.0133 7.7055 84.0194 8.2226V9.33994H82.8026C82.6045 9.33933 82.414 9.41738 82.2722 9.55734C82.1303 9.69729 82.0484 9.88798 82.0439 10.0884C82.0393 10.301 82.1156 10.5072 82.257 10.6644C82.4017 10.8139 82.5961 10.9039 82.8026 10.9167H84.0108V20.028C84.0113 20.1306 84.0319 20.232 84.0714 20.3264C84.1109 20.4209 84.1686 20.5064 84.241 20.5781C84.3923 20.7193 84.5914 20.7965 84.7972 20.7938C84.9973 20.7909 85.1881 20.7082 85.3282 20.5636C85.4683 20.4189 85.5463 20.2241 85.5452 20.0216V10.9167H86.8536C87.0587 10.9061 87.2524 10.8184 87.397 10.6708C87.5449 10.52 87.6277 10.316 87.6272 10.1035V10.0733C87.6216 9.87251 87.5383 9.68194 87.3951 9.54273C87.252 9.40352 87.0606 9.32682 86.8621 9.32916H85.5452V8.21613C85.5426 7.83598 85.587 7.457 85.6773 7.088C85.7209 6.88999 85.8075 6.7043 85.9309 6.54443C86.0342 6.43559 86.1633 6.35538 86.3059 6.31147C86.5566 6.23897 86.8168 6.20623 87.0774 6.21441H87.1179H87.1775H87.2478H87.4205C87.5234 6.21441 87.6254 6.19387 87.7206 6.15398C87.8157 6.11409 87.9022 6.05562 87.975 5.98191C88.0478 5.9082 88.1056 5.82069 88.145 5.72439C88.1844 5.62808 88.2047 5.52486 88.2047 5.42062C88.2047 5.31638 88.1844 5.21316 88.145 5.11685C88.1056 5.02054 88.0478 4.93304 87.975 4.85933C87.9022 4.78562 87.8157 4.72715 87.7206 4.68725C87.6254 4.64736 87.5234 4.62683 87.4205 4.62683L87.4119 4.63762ZM114.39 10.5328C114.464 10.4597 114.523 10.3725 114.564 10.2763C114.605 10.18 114.626 10.0766 114.627 9.97196C114.626 9.86991 114.605 9.7691 114.564 9.67591C114.523 9.58272 114.463 9.49917 114.388 9.43054C114.319 9.3568 114.235 9.29812 114.142 9.25802C114.05 9.21793 113.95 9.19726 113.849 9.19726C113.748 9.19726 113.649 9.21793 113.556 9.25802C113.463 9.29812 113.38 9.3568 113.31 9.43054L107.294 15.3559V5.37101C107.293 5.26705 107.271 5.16438 107.231 5.06887C107.19 4.97336 107.131 4.88689 107.058 4.81438C106.984 4.74187 106.897 4.68474 106.802 4.64627C106.706 4.6078 106.604 4.58874 106.501 4.59016C106.401 4.59076 106.301 4.61145 106.208 4.65105C106.115 4.69065 106.031 4.74839 105.96 4.82096C105.816 4.9672 105.734 5.16458 105.732 5.37101V19.9871C105.734 20.1929 105.816 20.3896 105.96 20.5352C106.104 20.6807 106.298 20.7635 106.501 20.7657C106.709 20.7686 106.908 20.6883 107.057 20.5423C107.206 20.3963 107.291 20.1966 107.294 19.9871V17.5755L109.257 15.5932L113.255 20.4745C113.323 20.5774 113.419 20.6577 113.532 20.7053C113.637 20.7447 113.748 20.7652 113.86 20.7657C114.041 20.7691 114.218 20.7106 114.363 20.5997H114.373C114.452 20.5236 114.515 20.4322 114.558 20.3311C114.601 20.2299 114.624 20.121 114.625 20.0108C114.623 19.8211 114.556 19.6379 114.435 19.4931L110.365 14.4866L114.393 10.5414L114.39 10.5328ZM103.522 9.52761C103.596 9.60046 103.654 9.68743 103.693 9.78338C103.733 9.87933 103.753 9.98232 103.752 10.0863V19.9871C103.751 20.1931 103.669 20.3901 103.525 20.5358C103.381 20.6815 103.187 20.7641 102.983 20.7657C102.779 20.7635 102.584 20.6807 102.44 20.5349C102.368 20.4634 102.311 20.3781 102.272 20.2841C102.232 20.1901 102.212 20.0891 102.212 19.9871V19.0207C101.732 19.5656 101.144 20.0025 100.487 20.303C99.8295 20.6036 99.1172 20.7613 98.396 20.7657C97.6747 20.7702 96.9606 20.6214 96.2997 20.329C95.6388 20.0366 95.0459 19.6071 94.5593 19.0682C93.5539 17.9702 92.9952 16.5284 92.9952 15.0313C92.9952 13.5342 93.5539 12.0923 94.5593 10.9944C95.0469 10.4583 95.6394 10.0308 96.2991 9.73926C96.9588 9.44767 97.6713 9.29834 98.3912 9.30078C99.1111 9.30321 99.8225 9.45736 100.48 9.7534C101.138 10.0494 101.728 10.4809 102.212 11.0203V10.0755C102.212 9.9714 102.232 9.86835 102.272 9.77241C102.312 9.67647 102.371 9.58957 102.444 9.51682C102.59 9.37821 102.783 9.30108 102.983 9.30108C103.183 9.30108 103.376 9.37821 103.522 9.51682V9.52761ZM102.212 15.0431C102.22 13.9397 101.814 12.8744 101.076 12.0621C100.736 11.678 100.32 11.3707 99.8551 11.1604C99.3901 10.95 98.8864 10.8413 98.377 10.8413C97.8676 10.8413 97.364 10.95 96.8989 11.1604C96.4339 11.3707 96.0179 11.678 95.6781 12.0621C94.9383 12.8736 94.5301 13.9389 94.5359 15.0431C94.5331 16.1399 94.943 17.1966 95.6824 17.9983C96.0254 18.3777 96.4427 18.6808 96.9077 18.8881C97.3727 19.0954 97.8753 19.2025 98.3834 19.2025C98.8915 19.2025 99.3941 19.0954 99.8591 18.8881C100.324 18.6808 100.741 18.3777 101.084 17.9983C101.821 17.1914 102.227 16.1311 102.22 15.0324L102.212 15.0431ZM40.2336 14.7541C39.5716 14.4635 38.8935 14.2121 38.2027 14.0013C37.5972 13.8266 37.0041 13.6104 36.4276 13.3542C36.2234 13.2533 36.0409 13.1126 35.8906 12.94C35.7691 12.7967 35.7039 12.6133 35.7073 12.4245C35.7021 12.167 35.7766 11.9143 35.9204 11.7019C36.1665 11.3794 36.4995 11.1359 36.8793 11.0009C37.2265 10.859 37.5961 10.7815 37.9704 10.7722C38.6357 10.7608 39.2861 10.9723 39.8201 11.374C40.0332 11.5272 40.208 11.6846 40.3742 11.8054C40.4539 11.873 40.5412 11.9309 40.6342 11.978C40.7279 12.0293 40.8324 12.0574 40.9389 12.06C41.0121 12.0602 41.0846 12.0455 41.152 12.0168C41.2207 11.9882 41.2841 11.9481 41.3396 11.8982C41.3968 11.844 41.4438 11.7797 41.4781 11.7084C41.507 11.6402 41.5223 11.5669 41.5228 11.4927C41.52 11.3556 41.4834 11.2213 41.4163 11.1022C41.2794 10.8647 41.1027 10.653 40.8942 10.4767C40.5094 10.1434 40.0787 9.86868 39.6156 9.66134C39.1487 9.43592 38.6409 9.31036 38.1239 9.29249C36.9795 9.29249 36.0248 9.55565 35.3301 10.0388C34.9667 10.2716 34.6582 10.5823 34.4266 10.9491C34.1771 11.3971 34.0485 11.9037 34.0536 12.418V12.5C34.0442 13.0325 34.2149 13.5523 34.5374 13.9733C34.9913 14.5513 35.6625 14.8986 36.321 15.1445C36.9795 15.3904 37.6337 15.5371 38.0493 15.6773C38.6248 15.8473 39.1807 16.0794 39.7072 16.3697C39.9103 16.4879 40.0908 16.642 40.2399 16.8248C40.3621 16.9949 40.4291 17.1992 40.4317 17.4094V17.4267C40.4353 17.7195 40.3448 18.0057 40.1739 18.242C39.8956 18.5834 39.5255 18.8359 39.1084 18.9689C38.7405 19.1014 38.3543 19.1742 37.964 19.1846C37.2188 19.2011 36.4809 19.0338 35.8138 18.6972C35.5709 18.5742 35.3749 18.4534 35.1959 18.3499C35.1085 18.3024 35.0254 18.2571 34.938 18.2204C34.8503 18.183 34.7562 18.1632 34.661 18.1622C34.5946 18.162 34.5288 18.1744 34.4671 18.1989C34.404 18.2244 34.3468 18.2625 34.2987 18.311C34.2306 18.3725 34.1736 18.4455 34.1304 18.5267C34.0906 18.6094 34.0701 18.7002 34.0707 18.7921C34.0745 18.9421 34.122 19.0876 34.2071 19.2105C34.3565 19.4111 34.5397 19.5835 34.7483 19.7196C35.0206 19.8993 35.3055 20.0586 35.6007 20.1963C36.3455 20.5326 37.1488 20.7159 37.964 20.7355C39.0615 20.7355 40.0119 20.4789 40.8111 19.8727C41.1997 19.5883 41.5169 19.2155 41.7372 18.7842C41.9574 18.353 42.0745 17.8754 42.079 17.39C42.089 16.9007 41.9682 16.4178 41.7295 15.9922C41.3637 15.4381 40.8428 15.007 40.2336 14.7541ZM90.6042 4.59016C90.4007 4.59184 90.2062 4.67479 90.0629 4.82096C89.9908 4.89276 89.9334 4.97837 89.8943 5.0728C89.8552 5.16723 89.835 5.2686 89.8349 5.37101V19.9871C89.8348 20.0892 89.8549 20.1903 89.8941 20.2844C89.9332 20.3785 89.9906 20.4637 90.0629 20.5349C90.1716 20.6446 90.3098 20.7195 90.4603 20.7502C90.6107 20.7809 90.7668 20.7661 90.909 20.7077C91.0512 20.6493 91.1733 20.5498 91.2601 20.4217C91.3468 20.2935 91.3944 20.1424 91.3969 19.9871V5.37101C91.3955 5.26705 91.3739 5.16438 91.3333 5.06887C91.2927 4.97336 91.2339 4.88689 91.1603 4.81438C91.0867 4.74187 90.9997 4.68474 90.9043 4.64627C90.8089 4.6078 90.7069 4.58874 90.6042 4.59016ZM126.062 14.6678V14.7455C126.062 14.8472 126.04 14.9477 125.999 15.0404C125.957 15.133 125.897 15.2156 125.821 15.2826C125.673 15.412 125.484 15.4825 125.288 15.481H116.645C116.858 17.6165 118.548 19.1911 120.56 19.2084H121.069C121.746 19.1974 122.404 18.9818 122.959 18.5893C123.535 18.1979 124.017 17.6822 124.372 17.0794C124.439 16.9609 124.538 16.8643 124.658 16.8011C124.768 16.7393 124.892 16.7074 125.018 16.7084C125.156 16.7083 125.291 16.7455 125.41 16.8162C125.517 16.8931 125.605 16.9945 125.666 17.1122C125.727 17.2299 125.76 17.3606 125.762 17.4935C125.762 17.6354 125.724 17.7748 125.653 17.8969C125.162 18.6946 124.508 19.3765 123.735 19.8965C122.946 20.4334 122.02 20.7264 121.069 20.7399H120.551C119.826 20.7336 119.109 20.5801 118.443 20.2885C117.777 19.997 117.176 19.5732 116.675 19.0423C115.652 17.9721 115.079 16.5427 115.075 15.0539C115.069 13.5383 115.645 12.0796 116.681 10.9858C117.187 10.4529 117.793 10.0289 118.464 9.7394C119.136 9.44989 119.858 9.30081 120.587 9.30112C121.988 9.29909 123.333 9.85548 124.332 10.8499C125.342 11.8639 125.954 13.2157 126.051 14.6527L126.062 14.6678ZM124.374 13.9301C124.175 13.0627 123.695 12.288 123.009 11.7296C122.324 11.1712 121.474 10.8615 120.594 10.8499C119.707 10.8567 118.848 11.163 118.153 11.7203C117.459 12.2775 116.967 13.0538 116.758 13.9258L124.374 13.9301ZM48.4465 9.32053C47.2878 9.32264 46.1718 9.76354 45.3181 10.5565V10.1014C45.3181 9.89868 45.242 9.70357 45.105 9.55565C45.0362 9.4819 44.9533 9.42305 44.8614 9.38264C44.7695 9.34223 44.6704 9.3211 44.5702 9.32053C44.4685 9.31908 44.3675 9.33828 44.2733 9.37701C44.179 9.41574 44.0934 9.4732 44.0215 9.546C43.9496 9.6188 43.8928 9.70546 43.8545 9.80085C43.8163 9.89624 43.7973 9.99843 43.7987 10.1014V20.22L43.8307 20.2524C43.8425 20.29 43.8597 20.3256 43.8818 20.3581C43.9884 20.5486 44.1642 20.6895 44.372 20.7506H44.4039H44.5702C44.6837 20.7498 44.7956 20.7241 44.8983 20.6751C44.9898 20.6328 45.0706 20.5701 45.1349 20.4918C45.1349 20.4918 45.1455 20.4724 45.1562 20.4638C45.195 20.4151 45.2273 20.3614 45.2521 20.3041C45.2716 20.2514 45.2873 20.1974 45.299 20.1424V20.1143V14.0207C45.3164 13.1832 45.6541 12.3853 46.2409 11.7946C46.6738 11.3484 47.2286 11.0434 47.8341 10.9185C48.4395 10.7937 49.068 10.8548 49.6389 11.094C50.2098 11.3332 50.6971 11.7396 51.0382 12.2611C51.3793 12.7826 51.5588 13.3953 51.5535 14.0207V19.9871C51.5544 20.1403 51.5998 20.2899 51.6839 20.4173C51.768 20.5447 51.8872 20.6443 52.0268 20.7038C52.1663 20.7633 52.32 20.78 52.4688 20.7519C52.6177 20.7238 52.7551 20.6521 52.864 20.5457C52.9375 20.473 52.9957 20.3861 53.0353 20.2901C53.0748 20.1941 53.0948 20.091 53.0942 19.9871V14.0207C53.0897 12.7748 52.5984 11.5813 51.7277 10.7007C50.8569 9.8201 49.6773 9.32394 48.4465 9.32053ZM63.7641 11.0009C64.7706 12.0957 65.3301 13.5358 65.3301 15.0313C65.3301 16.5268 64.7706 17.9668 63.7641 19.0617C63.2812 19.5986 62.6929 20.0275 62.0368 20.321C61.3807 20.6145 60.6712 20.7661 59.9539 20.7661C59.2366 20.7661 58.5271 20.6145 57.871 20.321C57.2149 20.0275 56.6266 19.5986 56.1437 19.0617C55.133 17.969 54.5707 16.5281 54.5707 15.0313C54.5707 13.5344 55.133 12.0936 56.1437 11.0009C56.6274 10.4654 57.2161 10.0378 57.8721 9.74526C58.5281 9.45271 59.2371 9.30162 59.9539 9.30162C60.6707 9.30162 61.3797 9.45271 62.0357 9.74526C62.6917 10.0378 63.2804 10.4654 63.7641 11.0009ZM63.7855 15.0324C63.7925 13.9321 63.3874 12.87 62.6518 12.06C62.3133 11.6748 61.8981 11.3665 61.4335 11.1554C60.9688 10.9443 60.4653 10.8352 59.956 10.8352C59.4467 10.8352 58.9432 10.9443 58.4786 11.1554C58.014 11.3665 57.5988 11.6748 57.2603 12.06C56.5216 12.8687 56.1134 13.9309 56.1181 15.0324C56.1135 16.1293 56.522 17.1867 57.2603 17.9896C57.6001 18.3727 58.0157 18.6791 58.4801 18.8888C58.9446 19.0985 59.4475 19.2069 59.956 19.2069C60.4646 19.2069 60.9675 19.0985 61.4319 18.8888C61.8964 18.6791 62.312 18.3727 62.6518 17.9896C63.387 17.1854 63.7923 16.1281 63.7855 15.0324ZM80.4073 9.3874C80.3198 9.34913 80.2256 9.32931 80.1303 9.32916C79.977 9.32975 79.8272 9.3753 79.699 9.46029C79.5708 9.54527 79.4697 9.66606 79.4079 9.80802L76.4671 17.9573L74.1997 12.4935C74.1353 12.3473 74.0282 12.2246 73.8928 12.1419C73.7603 12.0588 73.6076 12.0147 73.4517 12.0147C73.2981 12.0163 73.1482 12.0622 73.0195 12.147C72.8908 12.2318 72.7886 12.352 72.725 12.4935L70.447 17.9616L67.4891 9.81449C67.4393 9.66456 67.34 9.53659 67.2078 9.45211C67.0807 9.36943 66.9328 9.32527 66.7816 9.32485C66.6822 9.32496 66.5838 9.34474 66.4918 9.38309C66.313 9.46747 66.1729 9.61804 66.1003 9.80381C66.0278 9.98958 66.0283 10.1964 66.1019 10.3818L69.7267 20.2761C69.7574 20.3546 69.8006 20.4275 69.8546 20.4918C69.9032 20.5441 69.9601 20.5878 70.0229 20.6212C70.0416 20.6379 70.0615 20.653 70.0826 20.6665C70.1163 20.6862 70.153 20.7001 70.1913 20.7075C70.2765 20.7398 70.3666 20.7573 70.4576 20.7593C70.603 20.756 70.7443 20.7103 70.8647 20.6277C70.9887 20.545 71.0841 20.4251 71.1374 20.2847H71.1481L73.4474 14.7196L75.7511 20.2632C75.8014 20.4009 75.8903 20.5208 76.0068 20.6083C76.117 20.6933 76.2468 20.7482 76.384 20.7679H76.4799C76.568 20.7686 76.6555 20.7525 76.7377 20.7204C76.8076 20.6927 76.8735 20.6557 76.9338 20.6104C77.0562 20.5122 77.1516 20.3837 77.2108 20.2373L80.8335 10.3947C80.9085 10.207 80.9073 9.99687 80.8304 9.80994C80.7534 9.62302 80.6068 9.47431 80.4222 9.39603L80.4073 9.3874Z" fill="#29B5E8"/>
</g>
<defs>
<clipPath id="clip0_486_9084">
<rect width="130" height="30" fill="white"/>
</clipPath>
</defs>
</svg>
