<svg width="65" height="50" viewBox="0 0 65 50" fill="none" xmlns="http://www.w3.org/2000/svg">
<g clip-path="url(#clip0_486_6384)">
<g clip-path="url(#clip1_486_6384)">
<path d="M8.03413 8.56318H5.27316V18.0781H2.91155V8.56318H0.0840995V6.65714H8.41665L8.03413 8.56318ZM9.1818 6.42715L11.4606 5.90092C11.5607 6.36148 11.6098 7.15066 11.6098 7.95502V9.63125C11.6098 9.89421 11.5766 10.2397 11.5766 10.3382C12.1592 9.79582 13.124 9.43449 13.9887 9.43449C15.0362 9.43449 15.9342 9.92749 16.2002 10.6343C16.3671 11.1107 16.4167 11.2416 16.4167 12.1955V18.0777H14.2375V12.4248C14.2375 11.587 14.0055 11.2748 13.3729 11.2748C12.8242 11.2748 12.1088 11.6037 11.6098 12.0468V18.0777H9.34786V8.34958C9.34786 7.56052 9.28184 6.77268 9.1818 6.42715ZM24.3501 15.8424L25.2148 17.1578C24.2337 17.9464 23.2028 18.3244 22.0052 18.3244C19.5603 18.3244 17.9802 16.6149 17.9802 13.9697C17.9802 12.4575 18.2963 11.4559 19.0446 10.6339C19.7432 9.86137 20.5912 9.50003 21.7224 9.50003C22.7039 9.50003 23.6346 9.82815 24.1841 10.3876C24.966 11.1754 25.3149 12.3101 25.3149 14.0685V14.5773H20.3914V14.6433C20.3914 15.9412 21.0405 16.6813 22.1881 16.6813C22.9528 16.6814 23.6682 16.4018 24.3501 15.8424ZM20.425 12.9672H23.0032V12.8688C23.0032 12.2437 22.9368 11.9156 22.7372 11.6032C22.5211 11.2752 22.2049 11.1102 21.756 11.1102C20.9073 11.1102 20.4251 11.7673 20.4251 12.9339V12.9672H20.425ZM0 20.7975H2.46171L3.45966 25.3004C3.94181 27.4364 4.07508 29.0628 4.07508 29.0628C4.12471 28.6196 4.32439 26.9924 4.67328 25.4146L5.70478 20.7976H8.24936L9.31371 25.9076C9.53023 26.9758 9.81271 28.9312 9.81271 28.9312C9.84634 28.5703 10.2457 26.0892 10.4454 25.1352L11.3929 20.7976H13.8378L11.0431 32.3164H8.49951L7.46794 27.6661C7.06858 25.8919 6.93538 24.4449 6.91938 24.3464C6.91938 24.3464 6.68607 25.9574 6.35306 27.6337L5.40559 32.3164H2.76097L0 20.7975ZM20.6057 29.9605L21.4704 31.2754C20.4893 32.0642 19.4586 32.442 18.261 32.442C15.8161 32.442 14.2358 30.7325 14.2358 28.0879C14.2358 26.5752 14.5521 25.5739 15.3003 24.7516C15.9989 23.9794 16.8468 23.6182 17.9781 23.6182C18.9597 23.6182 19.8903 23.9462 20.4397 24.5057C21.2217 25.2937 21.5706 26.4279 21.5706 28.1862V28.695H16.6471V28.7615C16.6471 30.0589 17.2962 30.799 18.4438 30.799C19.2084 30.799 19.9239 30.52 20.6057 29.9605ZM16.6808 27.0848H19.2589V26.9864C19.2589 26.3617 19.1925 26.0336 18.9933 25.7213C18.7767 25.3933 18.4607 25.2278 18.0108 25.2278C17.163 25.2278 16.6808 25.8849 16.6808 27.0519V27.0848H16.6808ZM22.7854 24.7844C23.3336 24.4397 23.566 24.3246 24.1659 24.0941C24.997 23.7494 25.7125 23.602 26.4939 23.602C27.924 23.602 28.9052 24.1273 29.2381 25.0643C29.3549 25.409 29.3873 25.672 29.3873 26.5761L29.3382 29.4023V29.5499C29.3382 30.4539 29.4874 30.7988 30.1365 31.2751L28.9556 32.6232C28.4398 32.4094 27.9745 32.0318 27.7579 31.604C27.4419 31.8997 27.4082 31.933 27.2422 32.0472C26.826 32.3433 26.2273 32.5082 25.5287 32.5082C23.6333 32.5082 22.6017 31.5551 22.6017 29.8789C22.6017 27.9068 23.9821 26.9868 26.6936 26.9868C26.8596 26.9868 26.9596 26.9868 27.1926 27.0035V26.6579C27.1926 25.7215 27.0097 25.4091 26.1946 25.4091C25.4791 25.4091 24.6472 25.7539 23.7329 26.3623L22.7854 24.7844ZM27.159 28.5148H27.0593C25.5128 28.5148 24.9801 28.7943 24.9801 29.7969C24.9801 30.4539 25.3964 30.8971 25.9613 30.8971C26.3774 30.8971 26.7933 30.6844 27.1258 30.3222L27.159 28.5148ZM35.7075 23.6501L35.1423 25.1129H33.7117V29.4011C33.7117 30.4697 33.911 30.7492 34.6769 30.7492C34.8765 30.7492 35.0762 30.6993 35.4743 30.5839L35.7581 31.8993C35.109 32.1617 34.5268 32.2771 33.9446 32.2771C32.8142 32.2771 31.8991 31.7838 31.6494 31.0449C31.5166 30.6837 31.4997 30.5188 31.4997 29.7462V25.1129H30.6519V23.6833H31.4997C31.4997 22.8614 31.4997 22.3028 31.583 21.6781L33.8449 21.1196C33.7617 21.8916 33.7117 22.7958 33.7117 23.6501H35.7075ZM36.2057 20.4293L38.4845 19.9034C38.5846 20.3641 38.6338 21.1519 38.6338 21.9573V23.6339C38.6338 23.8964 38.6006 24.2419 38.6006 24.3408C39.1831 23.7979 40.148 23.4366 41.0126 23.4366C42.0602 23.4366 42.9581 23.9296 43.2241 24.6364C43.391 25.1129 43.4407 25.2437 43.4407 26.1968V32.0799H41.2615V26.4269C41.2615 25.5892 41.0295 25.2768 40.3968 25.2768C39.8481 25.2768 39.1328 25.6058 38.6338 26.0494V32.0799H36.3718V22.3518C36.3718 21.5632 36.3058 20.774 36.2057 20.4293ZM51.374 29.8447L52.2387 31.16C51.2576 31.9487 50.2268 32.3267 49.0291 32.3267C46.5843 32.3267 45.004 30.6172 45.004 27.972C45.004 26.4598 45.3201 25.458 46.0684 24.636C46.767 23.8635 47.6149 23.5022 48.7462 23.5022C49.7277 23.5022 50.6584 23.8303 51.208 24.3897C51.9899 25.1776 52.3387 26.3123 52.3387 28.0708V28.5804H47.4154V28.6456C47.4154 29.9435 48.0644 30.6837 49.2121 30.6837C49.9767 30.6837 50.6921 30.4042 51.374 29.8447ZM47.4491 26.9693H50.0272V26.8709C50.0272 26.2471 49.9607 25.9178 49.7611 25.6055C49.5451 25.2773 49.2289 25.1125 48.7799 25.1125C47.9312 25.1125 47.4491 25.7695 47.4491 26.9361V26.9693ZM53.571 23.9952L55.5672 23.4691C55.7669 23.8147 55.8834 24.1925 55.9162 24.6689C56.2322 24.2412 56.7649 23.798 57.1798 23.6007C57.3627 23.5189 57.6624 23.469 57.9121 23.469C58.2442 23.469 58.3942 23.5022 58.744 23.6506L58.1286 25.5892C57.9121 25.4742 57.7292 25.4248 57.4796 25.4248C56.9806 25.4248 56.5316 25.6549 56.1159 26.1312V32.0804H53.8869V26.4601C53.8869 25.3259 53.7537 24.4717 53.571 23.9952ZM8.27999 35.7243L7.23242 37.2854C6.65062 36.8577 6.0348 36.6439 5.38568 36.6439C4.60511 36.6439 3.83918 37.0227 3.42382 37.6297C2.97451 38.2881 2.77476 39.2409 2.77476 40.5715C2.77476 42.1327 2.90803 43.0036 3.25698 43.6274C3.72275 44.4651 4.4883 44.9096 5.48663 44.9096C6.11799 44.9096 6.66669 44.7289 7.23242 44.3509C7.29883 44.3024 7.38209 44.2359 7.46495 44.1702L8.53014 45.6164C7.61494 46.3554 6.63378 46.6842 5.31928 46.6842C3.72269 46.6842 2.49228 46.1746 1.54351 45.1068C0.612827 44.0719 0.146995 42.6913 0.146995 41.015C0.146995 39.5855 0.396302 38.4521 0.928932 37.4661C1.82729 35.8061 3.49023 34.8201 5.3529 34.8201C6.50057 34.8201 7.64863 35.1823 8.27999 35.7243ZM12.8205 37.9098C14.0349 37.9098 14.9824 38.3208 15.7148 39.1748C16.3965 39.963 16.6959 40.8834 16.6959 42.2478C16.6959 43.6934 16.3629 44.6794 15.6319 45.5005C14.9825 46.224 14.1346 46.6676 12.8205 46.6676C10.5088 46.6676 8.995 44.959 8.995 42.3129C8.995 39.6681 10.5256 37.9098 12.8205 37.9098ZM12.854 39.5361C12.3215 39.5361 11.8892 39.865 11.7064 40.3916C11.5562 40.8347 11.4735 41.4263 11.4735 42.2639C11.4735 43.2336 11.5731 43.9563 11.756 44.3837C11.9557 44.8434 12.4547 45.0739 12.8872 45.0739C13.852 45.0739 14.2678 44.2196 14.2678 42.2306C14.2678 41.0972 14.1177 40.3576 13.8183 39.9796C13.6028 39.7006 13.253 39.5361 12.854 39.5361ZM17.9598 38.3524L19.9726 37.8104C20.1218 38.04 20.1882 38.2373 20.2719 38.6652C20.8541 38.1065 21.5688 37.8104 22.3502 37.8104C23.0489 37.8104 23.6311 38.04 24.0805 38.4998C24.1974 38.6153 24.2465 38.6805 24.413 38.911C25.1945 38.1223 25.8931 37.8104 26.8251 37.8104C27.4901 37.8104 28.1215 38.0067 28.5041 38.3362C28.9871 38.747 29.1363 39.2399 29.1363 40.39V46.3715H26.9744V40.8178C26.9744 39.8152 26.8575 39.6178 26.2757 39.6178C25.8595 39.6178 25.2778 39.897 24.7951 40.3248V46.3715H22.6836V40.8987C22.6836 39.8471 22.5331 39.6013 21.9185 39.6013C21.5024 39.6013 20.9374 39.8152 20.4548 40.2416V46.3716H18.276V40.5055C18.276 39.2889 18.1928 38.7635 17.9598 38.3524ZM31.2319 38.0235L33.211 37.6779C33.2942 37.9736 33.3447 38.204 33.3611 38.4665C33.7437 38.0067 34.5916 37.6779 35.4563 37.6779C36.0553 37.6779 36.6707 37.8751 37.1365 38.1876C38.0512 38.7955 38.7162 39.8796 38.7162 41.8196C38.7162 43.6266 38.4337 44.5631 37.5354 45.4835C36.9537 46.0911 36.1886 46.4366 35.2566 46.4366C34.5915 46.4366 33.9602 46.2718 33.4772 45.9923C33.5109 46.1905 33.5109 46.6835 33.5109 46.6835V49.3119L31.3652 49.8705V40.1433C31.3651 39.0419 31.3484 38.7295 31.2319 38.0235ZM33.5271 44.2017C33.8269 44.448 34.309 44.6947 34.7575 44.6947C35.8556 44.6947 36.2881 43.9556 36.2881 42.0322C36.2881 41.2276 36.2221 40.5864 36.072 40.1752C35.9059 39.7154 35.5563 39.4696 35.0077 39.4696C34.4591 39.4696 33.9265 39.6989 33.5271 40.1101V44.2017ZM40.1303 38.8441C40.6789 38.4998 40.9122 38.3845 41.5112 38.1547C42.3422 37.8095 43.0577 37.6622 43.8392 37.6622C45.2693 37.6622 46.2505 38.187 46.5834 39.1245C46.7002 39.4693 46.7326 39.7325 46.7326 40.6358L46.6834 43.4621V43.6096C46.6834 44.5136 46.8327 44.8592 47.4817 45.3361L46.3009 46.6834C45.785 46.4694 45.3193 46.0914 45.1033 45.6642C44.7871 45.9599 44.7535 45.9931 44.5874 46.1081C44.1712 46.403 43.5735 46.5679 42.874 46.5679C40.9784 46.5679 39.9469 45.6151 39.9469 43.9389C39.9469 41.9666 41.3274 41.047 44.0387 41.047C44.2048 41.047 44.3045 41.047 44.5378 41.0632V40.7181C44.5378 39.7815 44.3549 39.4693 43.5398 39.4693C42.8243 39.4693 41.9933 39.8147 41.0781 40.4219L40.1303 38.8441ZM44.5042 42.5749H44.4046C42.8581 42.5749 42.3255 42.8541 42.3255 43.8566C42.3255 44.5136 42.7413 44.9572 43.3066 44.9572C43.7228 44.9572 44.1386 44.7441 44.4706 44.3828L44.5042 42.5749ZM48.5129 38.3031L50.4921 37.7448C50.6908 38.089 50.8082 38.4503 50.8082 38.7964C51.3231 38.435 51.4232 38.3686 51.7898 38.1713C52.2383 37.9415 52.8205 37.81 53.3195 37.81C54.267 37.81 55.0994 38.303 55.365 39.0265C55.4815 39.3379 55.5311 39.7 55.5311 40.2254V46.3715H53.3364V40.8992C53.3364 39.9464 53.1695 39.6674 52.5881 39.6674C52.1387 39.6674 51.5566 39.963 51.0406 40.4227V46.3715H48.8122V40.2753C48.8122 39.5518 48.7113 38.8616 48.5129 38.3031ZM56.6123 38.1061L58.8911 37.8437L60.3717 42.7397C60.5209 43.2495 60.8202 44.4813 60.8202 44.4813C60.8202 44.4813 60.9863 43.5452 61.0864 43.134C61.2196 42.6081 61.2532 42.5259 61.4193 41.9674L62.6998 37.9744H65.0451L61.9519 46.5026C61.3698 48.1298 60.9368 48.8359 60.3214 49.2799C59.7559 49.6902 59.0236 49.9539 58.259 50.0524L57.4939 48.6066C57.9765 48.4745 58.5414 48.2773 58.8744 48.0471C59.1237 47.8665 59.3234 47.6368 59.5063 47.3578C59.7223 47.0122 59.7895 46.8648 59.9892 46.3714H59.423C59.2906 45.9772 59.2233 45.8131 59.0741 45.3854C58.9081 44.8757 58.6416 44.0381 58.6256 44.0049L56.6123 38.1061Z" fill="white"/>
<path d="M43.8207 0C43.4895 0.82954 43.1738 1.59784 42.8745 2.3716C42.0762 4.43475 41.8739 6.57579 42.0443 8.76116C42.159 10.2419 42.2624 11.7289 41.7747 13.1636C40.8759 15.8066 38.9925 17.3222 36.201 17.69C33.3374 18.068 31.0373 17.0197 29.4438 14.6959C27.0705 11.2368 28.1021 5.77047 33.4248 4.32988C34.7433 3.97285 36.1043 3.77043 37.4357 3.45388C39.6684 2.92199 41.5707 1.75631 43.3471 0.363008C43.4865 0.253058 43.6288 0.146578 43.8207 0" fill="#0BA2DC"/>
<path d="M44.0058 3.72866L43.9528 3.81522C43.8554 3.75218 43.7929 3.73046 43.7062 3.73046C43.5789 3.73046 43.5039 3.79343 43.5039 3.89452C43.5039 3.97503 43.5527 4.02182 43.6729 4.05767L43.7886 4.0943C43.8787 4.12238 43.927 4.14847 43.968 4.19577C44.0085 4.24178 44.034 4.309 44.034 4.37171C44.034 4.46464 43.9818 4.55235 43.8938 4.61198C43.8274 4.65375 43.7593 4.67297 43.6665 4.67297C43.5458 4.67297 43.4423 4.64437 43.3418 4.58307L43.3953 4.48976C43.4794 4.54895 43.5652 4.57542 43.6665 4.57542C43.7433 4.57542 43.7843 4.56392 43.8274 4.53153C43.8762 4.4949 43.8999 4.44709 43.8999 4.38964C43.8999 4.30006 43.8409 4.23825 43.7179 4.20252L43.6161 4.17231C43.5242 4.14417 43.4768 4.12412 43.4362 4.08273C43.3953 4.03936 43.3724 3.98358 43.3724 3.91996C43.3724 3.74877 43.5039 3.63278 43.7002 3.63278C43.8096 3.63278 43.9101 3.66433 44.0058 3.72866ZM44.3388 3.65405H44.5157L44.7002 4.30681C44.7197 4.37679 44.7266 4.40487 44.7399 4.48237C44.7567 4.398 44.7637 4.36985 44.777 4.31921L44.9677 3.65399H45.1461L45.2328 4.65453H45.1117L45.0526 3.92125C45.0479 3.85692 45.0453 3.75031 45.0453 3.75031C45.0339 3.80328 45.0207 3.85586 45.0057 3.90795L44.7883 4.65453H44.6852L44.4847 3.94457C44.4644 3.86798 44.4493 3.81939 44.4351 3.74941C44.4351 3.74941 44.4273 3.88198 44.4229 3.9429L44.3673 4.65446H44.2504L44.3388 3.65405Z" fill="#6D6F70"/>
</g>
</g>
<defs>
<clipPath id="clip0_486_6384">
<rect width="65" height="50" fill="white"/>
</clipPath>
<clipPath id="clip1_486_6384">
<rect width="65" height="50" fill="white"/>
</clipPath>
</defs>
</svg>
